<svg width="51" height="51" viewBox="0 0 51 51" fill="none" xmlns="http://www.w3.org/2000/svg">
<g clip-path="url(#clip0_91_2)">
<path d="M33 19.75C33 20.5456 32.6839 21.3087 32.1213 21.8713C31.5587 22.4339 30.7956 22.75 30 22.75C29.2044 22.75 28.4413 22.4339 27.8787 21.8713C27.3161 21.3087 27 20.5456 27 19.75C27 18.9544 27.3161 18.1913 27.8787 17.6287C28.4413 17.0661 29.2044 16.75 30 16.75C30.7956 16.75 31.5587 17.0661 32.1213 17.6287C32.6839 18.1913 33 18.9544 33 19.75Z" stroke="#FFA7CC" stroke-width="3" stroke-linejoin="round"/>
<path d="M30 28.132C29.828 28.412 29.6395 28.693 29.4345 28.975C27.4635 31.6705 24.744 33.256 22.5 33.25L22.047 30.1375L18.93 30.6715C18.231 28.552 18.9735 25.4005 20.943 22.7035C17.9025 21.649 15.663 19.5955 15 17.5L17.79 16.1035L16.341 13.3045C18.1215 11.98 21.63 11.8195 24.7635 12.856C24.7635 9.25 26.004 6.055 27.8085 4.75L30 7L32.19 4.75C33.996 6.055 35.253 9.25 35.235 12.856C38.37 11.821 41.8785 11.98 43.659 13.3045L42.2115 16.1035L45 17.5C44.337 19.594 42.0975 21.6475 39.057 22.705C41.0265 25.4005 41.769 28.552 41.07 30.6715L37.953 30.1375L37.5 33.25C35.256 33.256 32.5365 31.6705 30.5655 28.975C30.3652 28.7021 30.1765 28.4208 30 28.132Z" stroke="#FFA7CC" stroke-width="3" stroke-linejoin="round"/>
<g clip-path="url(#clip1_91_2)">
<g filter="url(#filter0_d_91_2)">
<path d="M48.0518 4.26589C47.0023 3.39331 45.5775 3.85081 43.7423 5.42564C36.1621 11.9308 23.5436 23.2697 15.6095 32.2308L17.7082 34.3296C25.8971 25.6352 37.9658 13.8575 48.0517 4.26579L48.0518 4.26589ZM14.3364 33.4933L12.6261 35.1894L14.8476 37.411C15.3896 36.8177 15.9345 36.227 16.4821 35.639L14.3364 33.4933ZM8.67895 33.4963L7.41112 34.7641L15.2998 42.6527L16.5676 41.3849L8.67895 33.4963ZM8.972 38.8936L2.94812 44.9175C2.98517 46.062 4.01474 47.1423 5.20208 47.1713L11.2259 41.1475L10.4153 40.3371C10.68 40.7619 10.6982 41.2042 10.4609 41.4425C10.1497 41.7536 9.50919 41.6176 9.03017 41.1387C9.50909 41.6176 9.64516 42.2583 9.33398 42.5694C9.0227 42.8806 8.38221 42.7447 7.90319 42.2656C8.38231 42.7447 8.51818 43.3852 8.207 43.6963C7.89582 44.0075 7.25523 43.8716 6.77631 43.3924C7.25523 43.8716 7.3912 44.5121 7.08012 44.8232C6.76884 45.1344 6.12825 44.9985 5.64933 44.5194C6.12825 44.9985 6.26432 45.639 5.95314 45.9502C5.64196 46.2614 5.00137 46.1255 4.52235 45.6464C4.04342 45.1675 3.90746 44.5268 4.21854 44.2157C4.52982 43.9046 5.17041 44.0406 5.64933 44.5195C5.17041 44.0406 5.03444 43.4001 5.34552 43.0889C5.6568 42.7777 6.29729 42.9136 6.77631 43.3927C6.29719 42.9136 6.16132 42.2731 6.4725 41.962C6.78368 41.6508 7.42427 41.7866 7.90319 42.2658C7.42427 41.7866 7.2883 41.1462 7.59938 40.835C7.91066 40.5238 8.55125 40.6597 9.03017 41.1388C8.55125 40.6597 8.41528 40.0192 8.72636 39.708C8.96443 39.4706 9.40649 39.4887 9.83103 39.7528L8.972 38.8936Z" fill="#B1648D"/>
</g>
</g>
</g>
<defs>
<filter id="filter0_d_91_2" x="-1.05188" y="3.82874" width="53.1038" height="51.3426" filterUnits="userSpaceOnUse" color-interpolation-filters="sRGB">
<feFlood flood-opacity="0" result="BackgroundImageFix"/>
<feColorMatrix in="SourceAlpha" type="matrix" values="0 0 0 0 0 0 0 0 0 0 0 0 0 0 0 0 0 0 127 0" result="hardAlpha"/>
<feOffset dy="4"/>
<feGaussianBlur stdDeviation="2"/>
<feComposite in2="hardAlpha" operator="out"/>
<feColorMatrix type="matrix" values="0 0 0 0 0 0 0 0 0 0 0 0 0 0 0 0 0 0 0.25 0"/>
<feBlend mode="normal" in2="BackgroundImageFix" result="effect1_dropShadow_91_2"/>
<feBlend mode="normal" in="SourceGraphic" in2="effect1_dropShadow_91_2" result="shape"/>
</filter>
<clipPath id="clip0_91_2">
<rect width="51" height="51" fill="white"/>
</clipPath>
<clipPath id="clip1_91_2">
<rect width="51" height="51" fill="white"/>
</clipPath>
</defs>
</svg>
